Coordinates
version=1
nRows=9
nColumns=36
inDegrees=yes

Units are S.I. units (second, meters, Newtons, ...)
If the header above contains a line with 'inDegrees', this indicates whether rotational values are in degrees (yes) or radians (no).

endheader
time	pelvis_tilt	pelvis_list	pelvis_rotation	pelvis_tx	pelvis_ty	pelvis_tz	hip_flexion_r	hip_adduction_r	hip_rotation_r	knee_angle_r	knee_angle_r_beta	ankle_angle_r	subtalar_angle_r	mtp_angle_r	hip_flexion_l	hip_adduction_l	hip_rotation_l	knee_angle_l	knee_angle_l_beta	ankle_angle_l	subtalar_angle_l	mtp_angle_l	lumbar_extension	lumbar_bending	lumbar_rotation	arm_flex_r	arm_add_r	arm_rot_r	elbow_flex_r	pro_sup_r	arm_flex_l	arm_add_l	arm_rot_l	elbow_flex_l	pro_sup_l
      0.67000000	     -1.53043714	      2.32268574	      1.79342220	      0.79178415	      0.94000227	     -0.18610375	     -0.32018059	     -4.79256595	     -7.83873854	     50.77251016	      0.88614747	     -8.85586369	    -13.57950962	     -7.18392877	     20.93186888	      4.46540677	     -9.90422070	     17.39264078	      0.30355885	      2.11784570	     -8.82059210	     -7.18392877	     -3.03681431	     -5.44044745	      7.75036907	      7.64412534	     -0.99184223	     -7.54556760	     43.70312195	    106.05008239	    -16.99930723	     -0.82751241	    -31.05865563	     19.10925271	     97.23933265
      0.68000000	     -1.54900191	      2.83063598	      1.84909451	      0.80262424	      0.94051509	     -0.18799908	      1.74025797	     -6.02994863	     -8.22637750	     54.50289882	      0.95125504	     -9.54686910	    -14.37915818	     -7.18843149	     20.22672582	      5.10771275	    -10.03195514	     17.51797772	      0.30574639	      2.95546335	     -8.71613318	     -7.18843149	     -3.23746829	     -6.10913505	      6.91631554	      7.41718171	     -0.85154226	     -7.29320146	     43.35325195	    106.04167692	    -15.92380695	     -1.05733613	    -30.65537770	     19.50939747	     97.46036838
      0.69000000	     -1.69382069	      3.25582762	      1.89744034	      0.81316573	      0.94093049	     -0.18979442	      3.98247494	     -7.09761555	     -8.44737966	     57.99485819	      1.01220122	     -9.64148396	    -15.43473087	     -7.19218992	     19.64580715	      5.66793366	    -10.17636501	     17.57274450	      0.30670225	      3.72222797	     -8.56171146	     -7.19218992	     -3.30036733	     -6.67950579	      6.06094485	      7.21986130	     -0.74342436	     -6.98156618	     42.92262143	    106.02960355	    -14.81550803	     -1.30603166	    -30.17372782	     19.94206089	     97.67694291
      0.70000000	     -2.05475303	      3.47402043	      1.90354778	      0.82345289	      0.94117603	     -0.19139947	      6.50855163	     -7.81843480	     -8.47958796	     61.16294356	      1.06749475	     -9.33374360	    -16.67600134	     -7.20358555	     19.34418548	      5.95679898	    -10.50176427	     17.67726039	      0.30852640	      4.55780654	     -8.03046156	     -7.20358555	     -3.04232613	     -7.00320639	      5.20434124	      7.09223100	     -0.77158560	     -6.21402267	     42.14213227	    105.98482330	    -13.76962620	     -1.64313761	    -28.87814459	     20.17001194	     98.18984642
      0.71000000	     -2.30872702	      3.68337322	      1.88361767	      0.83363571	      0.94181825	     -0.19295886	      8.89209625	     -8.45479973	     -8.43594852	     63.92256131	      1.11565916	     -8.47181267	    -17.58691077	     -7.21268217	     18.78112497	      6.30439527	    -10.57443906	     17.47211451	      0.30494593	      5.21465154	     -7.77356839	     -7.21268217	     -2.95970455	     -7.30586821	      4.45647998	      6.87977836	     -0.72683539	     -5.86674371	     41.61537230	    105.91501973	    -12.49270265	     -1.98746345	    -27.83227923	     20.36942887	     98.52463147
      0.72000000	     -2.59128643	      3.76122751	      1.85942168	      0.84374953	      0.94261593	     -0.19448896	     11.27129656	     -8.85892612	     -8.34668301	     66.23962444	      1.15609954	     -7.38626285	    -18.19014099	     -7.22437490	     18.23881753	      6.51545216	    -10.65029790	     17.22380954	      0.30061219	      5.81727118	     -7.54448398	     -7.22437490	     -2.80080645	     -7.43100860	      3.70997986	      6.66258958	     -0.75814510	     -5.48105840	     41.00501076	    105.81471938	    -11.19162548	     -2.38454580	    -26.40264436	     20.43010733	     98.86367918
      0.73000000	     -2.70089034	      3.76655657	      1.82336705	      0.85383108	      0.94393928	     -0.19594977	     13.36654491	     -9.06157864	     -8.22254923	     68.00856277	      1.18697334	     -6.51786423	    -18.93257180	     -7.22741356	     17.40193760	      6.68865875	    -10.53649423	     16.75887172	      0.29249749	      6.34772046	     -7.44543446	     -7.22741356	     -2.86682189	     -7.46473576	      2.99790879	      6.42368377	     -0.75492212	     -5.39012237	     40.55007753	    105.76639195	     -9.76723616	     -2.63766509	    -25.90255644	     20.82045432	     98.98017186
      0.74000000	     -2.87791071	      3.62637369	      1.76512712	      0.86388544	      0.94537781	     -0.19725823	     15.46782992	     -8.97725813	     -8.03083448	     69.30319636	      1.20956896	     -5.74067273	    -19.31562108	     -7.23030508	     16.62891765	      6.68931470	    -10.44425293	     16.26377184	      0.28385637	      6.77420117	     -7.28394227	     -7.23030508	     -2.81331032	     -7.32483172	      2.31083673	      6.17675271	     -0.77286193	     -5.26556516	     39.94648505	    105.70655365	     -8.36484516	     -2.90130353	    -25.28612092	     21.23576461	     99.11306418
      0.75000000	     -2.95808187	      3.33816788	      1.72893032	      0.87389071	      0.94713054	     -0.19856618	     17.34503061	     -8.66020163	     -7.90543991	     70.09294665	      1.22335270	     -5.23171601	    -19.43316253	     -7.23218109	     15.73332082	      6.52332001	    -10.39504065	     15.73138031	      0.27456438	      7.08602132	     -7.11867846	     -7.23218109	     -2.88026813	     -6.98145056	      1.57247305	      5.95422454	     -0.83769476	     -5.20043635	     39.40242642	    105.64864340	     -6.92946457	     -3.11740744	    -24.78393927	     21.70845200	     99.22853312
